#!OML:ASF X:\für Bonn\!DataBase\2005_08_12_Daniel\c3d\Daniel.ASF
:FULLY-SPECIFIED
:DEGREES
245
root 0.0602616 16.776 0.19896 10.8976 -87.3927 -24.2845
lowerback 14.8116 -1.20003 2.89172
upperback -0.123855 -1.33328 -2.28109
thorax -8.59285 -0.841611 -3.79972
lowerneck 4.7094 -0.278459 1.15247
upperneck 1.1942 -0.386306 -5.03849
head -0.437479 -0.169384 -1.75553
rclavicle 1.23246e-014 3.97569e-015
rhumerus -171.563 -204.292 111.206
rradius 91.2694
rwrist 13.4465
rhand -22.3357 376.434
rfingers 7.12502
rthumb 4.08465 -13.5061
lclavicle 1.23246e-014 3.97569e-015
lhumerus -188.103 207.882 -96.1922
lradius 108.565
lwrist 15.1319
lhand -14.5936 357.587
lfingers 7.12502
lthumb 11.5567 27.2488
rfemur 10.4014 8.08817 19.6656
rtibia 29.5866
rfoot -33.0832 -18.8535
rtoes -9.92825
lfemur -1.62874 -10.8534 -15.9996
ltibia 41.9777
lfoot -29.0169 -3.05421
ltoes 1.40228
246
root 0.0702865 16.774 0.204532 8.52636 -87.6958 -22.0139
lowerback 15.1287 -1.13453 2.68023
upperback 0.0145443 -1.28832 -2.3533
thorax -8.61411 -0.813076 -3.76524
lowerneck 4.24164 -0.211064 0.816786
upperneck 1.06492 -0.311671 -4.90663
head -0.393818 -0.136824 -1.65459
rclavicle 3.18055e-015 0
rhumerus -175.594 -205.688 108.995
rradius 93.0544
rwrist 13.5294
rhand -23.0711 376.714
rfingers 7.12502
rthumb 3.37445 -13.2392
lclavicle 3.18055e-015 0
lhumerus -190.87 207.721 -94.907
lradius 108.716
lwrist 15.7266
lhand -13.736 357.286
lfingers 7.12502
lthumb 12.3837 26.8994
rfemur 10.4993 8.33151 19.5064
rtibia 29.4903
rfoot -33.1177 -18.9614
rtoes -9.98956
lfemur -1.33993 -11.0095 -16.4075
ltibia 41.7703
lfoot -29.1944 -2.46566
ltoes 1.14476
247
root 0.0822056 16.7777 0.21071 5.10364 -87.9912 -18.6362
lowerback 15.3909 -1.05284 2.47799
upperback 0.156221 -1.2252 -2.45096
thorax -8.60005 -0.776569 -3.76817
lowerneck 3.71201 -0.166422 0.502196
upperneck 0.962079 -0.261671 -4.76595
head -0.332962 -0.117356 -1.55444
rclavicle 1.88845e-015 -1.66979e-014
rhumerus -179.568 -207.056 106.844
rradius 94.4481
rwrist 13.1698
rhand -23.9527 377.009
rfingers 7.12502
rthumb 2.52301 -12.9562
lclavicle 1.88845e-015 -1.66979e-014
lhumerus -193.564 207.466 -93.5622
lradius 108.663
lwrist 16.4428
lhand -12.8293 357.232
lfingers 7.12502
lthumb 13.2577 26.7905
rfemur 10.516 8.591 19.3241
rtibia 29.4182
rfoot -33.1148 -19.0751
rtoes -10.0597
lfemur -1.10319 -11.1938 -16.8367
ltibia 41.5254
lfoot -29.2629 -1.81025
ltoes 0.926688
248
root 0.0933564 16.7828 0.217187 0.337291 -88.2777 -13.8686
lowerback 15.6039 -0.965971 2.27755
upperback 0.273834 -1.15717 -2.55647
thorax -8.58424 -0.738366 -3.78232
lowerneck 3.22234 -0.121433 0.20069
upperneck 0.854997 -0.208479 -4.6183
head -0.280723 -0.0955343 -1.45505
rclavicle 3.08116e-015 2.22639e-014
rhumerus -183.745 -208.229 104.331
rradius 95.5155
rwrist 12.7408
rhand -24.7885 377.398
rfingers 7.12502
rthumb 1.71579 -12.5747
lclavicle 3.08116e-015 2.22639e-014
lhumerus -196.257 207.087 -92.1327
lradius 108.399
lwrist 17.2178
lhand -12.1017 357.462
lfingers 7.12502
lthumb 13.959 26.9731
rfemur 10.4858 8.86291 19.1244
rtibia 29.3468
rfoot -33.1671 -19.1193
rtoes -10.0638
lfemur -0.893401 -11.4262 -17.2787
ltibia 41.2686
lfoot -29.3274 -1.15225
ltoes 0.735495
249
root 0.10401 16.7912 0.223191 -6.40074 -88.5559 -7.08265
lowerback 15.7422 -0.847172 2.12351
upperback 0.405658 -1.04356 -2.69704
thorax -8.50885 -0.680252 -3.87162
lowerneck 2.67455 -0.117836 -0.0846232
upperneck 0.791428 -0.204678 -4.46557
head -0.207232 -0.0994627 -1.35673
rclavicle -6.36111e-015 -1.74931e-014
rhumerus -188.139 -209.12 101.615
rradius 96.4293
rwrist 12.1802
rhand -25.5479 377.776
rfingers 7.12502
rthumb 0.982376 -12.2012
lclavicle -6.36111e-015 -1.74931e-014
lhumerus -198.852 206.68 -90.6979
lradius 107.954
lwrist 18.0688
lhand -11.5195 358.068
lfingers 7.12502
lthumb 14.52 27.5401
rfemur 10.4199 9.15329 18.9185
rtibia 29.2331
rfoot -33.1601 -19.2155
rtoes -10.0235
lfemur -0.747349 -11.6188 -17.7071
ltibia 41.0401
lfoot -29.3599 -0.497841
ltoes 0.47507
250
root 0.114689 16.8048 0.228913 -13.7452 -88.7867 0.397335
lowerback 15.8116 -0.734142 2.00556
upperback 0.494886 -0.928787 -2.81474
thorax -8.44118 -0.622626 -3.95738
lowerneck 2.20865 -0.116321 -0.441302
upperneck 0.682177 -0.205523 -4.24308
head -0.161626 -0.104036 -1.22515
rclavicle 3.08116e-015 -1.59028e-015
rhumerus -192.769 -209.709 98.7121
rradius 97.1598
rwrist 11.6324
rhand -26.2265 378.258
rfingers 7.12502
rthumb 0.327018 -11.7212
lclavicle 3.08116e-015 -1.59028e-015
lhumerus -201.485 206.131 -89.2067
lradius 107.389
lwrist 18.8155
lhand -11.2004 359.107
lfingers 7.12502
lthumb 14.8274 28.5564
rfemur 10.2969 9.46189 18.7656
rtibia 29.0527
rfoot -33.1287 -19.3191
rtoes -9.9892
lfemur -0.736317 -11.8241 -18.0527
ltibia 40.8669
lfoot -29.3862 0.129151
ltoes 0.287237
251
root 0.125988 16.8235 0.234353 -21.3703 -89.0021 8.20044
lowerback 15.8443 -0.617828 1.96887
upperback 0.579496 -0.796023 -2.94349
thorax -8.35772 -0.559542 -4.10569
lowerneck 1.72327 -0.146834 -0.762666
upperneck 0.564606 -0.245059 -4.02528
head -0.116573 -0.12741 -1.1019
rclavicle 2.08724e-015 1.66979e-014
rhumerus -197.431 -209.867 95.6774
rradius 97.6862
rwrist 11.2223
rhand -26.6763 378.641
rfingers 7.12502
rthumb -0.107427 -11.3385
lclavicle 2.08724e-015 1.66979e-014
lhumerus -204.083 205.484 -87.7433
lradius 106.778
lwrist 19.3814
lhand -11.2287 360.461
lfingers 7.12502
lthumb 14.8002 29.912
rfemur 10.1536 9.81182 18.688
rtibia 28.8281
rfoot -33.0809 -19.517
rtoes -10.0843
lfemur -0.808735 -12.0636 -18.3298
ltibia 40.7498
lfoot -29.4361 0.79249
ltoes 0.0757756
252
root 0.137935 16.8465 0.239433 -29.4907 -89.202 16.6878
lowerback 15.6646 -0.501031 1.97997
upperback 0.631784 -0.652304 -3.06171
thorax -8.18928 -0.490587 -4.27081
lowerneck 1.22857 -0.186086 -1.14536
upperneck 0.428568 -0.294761 -3.76906
head -0.0757651 -0.155401 -0.957525
rclavicle 4.42296e-015 2.22639e-014
rhumerus -201.944 -209.537 92.6254
rradius 97.9029
rwrist 11.0901
rhand -26.9475 378.917
rfingers 7.12502
rthumb -0.369345 -11.0624
lclavicle 4.42296e-015 2.22639e-014
lhumerus -206.671 204.689 -86.3147
lradius 106.182
lwrist 19.6866
lhand -11.5011 362.126
lfingers 7.12502
lthumb 14.5377 31.5965
rfemur 9.79639 10.0852 18.5933
rtibia 28.5896
rfoot -32.9486 -19.6744
rtoes -10.1082
lfemur -1.133 -12.2917 -18.4981
ltibia 40.6829
lfoot -29.4956 1.41013
ltoes -0.266413
253
root 0.151306 16.8701 0.243804 -37.1547 -89.3694 24.913
lowerback 15.3085 -0.393237 2.04018
upperback 0.615298 -0.510414 -3.17836
thorax -7.99659 -0.423245 -4.45999
lowerneck 0.787393 -0.235212 -1.48489
upperneck 0.259795 -0.356399 -3.52068
head -0.0540807 -0.187635 -0.824131
rclavicle 3.72721e-015 1.59028e-015
rhumerus -206.238 -208.744 89.6418
rradius 97.8148
rwrist 11.1781
rhand -26.9139 378.986
rfingers 7.12502
rthumb -0.336888 -10.994
lclavicle 3.72721e-015 1.59028e-015
lhumerus -209.275 203.748 -84.9454
lradius 105.637
lwrist 19.6319
lhand -11.9967 363.924
lfingers 7.12502
lthumb 14.0602 33.428
rfemur 9.21164 10.4214 18.5475
rtibia 28.3765
rfoot -32.8494 -19.921
rtoes -10.1822
lfemur -1.70003 -12.5465 -18.56
ltibia 40.6379
lfoot -29.5438 2.01738
ltoes -0.476251
254
root 0.1666 16.8944 0.246874 -46.4288 -89.5102 34.8838
lowerback 14.8041 -0.292136 2.09688
upperback 0.583009 -0.376703 -3.28342
thorax -7.73734 -0.357326 -4.62928
lowerneck 0.400066 -0.293061 -1.86572
upperneck -0.0143815 -0.432553 -3.25187
head -0.0729753 -0.224369 -0.678753
rclavicle 1.49089e-015 1.27222e-014
rhumerus -210.254 -207.454 86.832
rradius 97.4239
rwrist 11.5672
rhand -26.6938 378.891
rfingers 7.12502
rthumb -0.124346 -11.089
lclavicle 1.49089e-015 1.27222e-014
lhumerus -211.821 202.681 -83.6952
lradius 105.119
lwrist 19.2513
lhand -12.7094 365.665
lfingers 7.12502
lthumb 13.3733 35.2157
rfemur 8.45476 10.7853 18.5139
rtibia 28.2068
rfoot -32.7679 -20.2025
rtoes -10.1656
lfemur -2.4436 -12.7717 -18.5355
ltibia 40.6005
lfoot -29.6052 2.52791
ltoes -0.687622
255
root 0.180623 16.9187 0.249362 -56.9453 -89.6087 46.1636
lowerback 14.2279 -0.218141 2.11235
upperback 0.527459 -0.282741 -3.35746
thorax -7.4654 -0.307665 -4.73032
lowerneck 0.0744967 -0.333585 -2.23192
upperneck -0.34721 -0.487327 -3.00366
head -0.119196 -0.24851 -0.54327
rclavicle -2.48481e-016 -1.27222e-014
rhumerus -214.072 -205.652 84.1929
rradius 96.8332
rwrist 12.0729
rhand -26.1108 378.569
rfingers 7.12502
rthumb 0.438685 -11.4099
lclavicle -2.48481e-016 -1.27222e-014
lhumerus -214.3 201.416 -82.5567
lradius 104.601
lwrist 18.4459
lhand -13.4482 367.14
lfingers 7.12502
lthumb 12.6612 36.7361
rfemur 7.61375 11.1874 18.4948
rtibia 28.0855
rfoot -32.768 -20.535
rtoes -10.22
lfemur -3.25821 -13.081 -18.4913
ltibia 40.5505
lfoot -29.6368 3.04665
ltoes -0.777365
256
root 0.194629 16.9413 0.251303 -68.2448 -89.7006 58.1838
lowerback 13.7022 -0.158441 2.14454
upperback 0.480758 -0.204918 -3.43004
thorax -7.21333 -0.266656 -4.83532
lowerneck -0.234632 -0.377449 -2.48786
upperneck -0.703268 -0.546634 -2.84245
head -0.175386 -0.274263 -0.453031
rclavicle 3.32964e-015 -1.82882e-014
rhumerus -217.55 -203.321 81.7798
rradius 96.1757
rwrist 12.4772
rhand -25.149 378
rfingers 7.12502
rthumb 1.3677 -11.9756
lclavicle 3.32964e-015 -1.82882e-014
lhumerus -216.704 200.114 -81.5878
lradius 104.085
lwrist 17.3771
lhand -14.3343 368.295
lfingers 7.12502
lthumb 11.8067 37.9423
rfemur 6.82034 11.5729 18.5012
rtibia 27.9842
rfoot -32.8121 -20.822
rtoes -10.2804
lfemur -4.02106 -13.435 -18.4235
ltibia 40.4906
lfoot -29.7085 3.58949
ltoes -0.926368
257
root 0.207903 16.9609 0.252422 -81.6343 -89.7384 72.1682
lowerback 13.301 -0.119759 2.10377
upperback 0.475184 -0.16529 -3.48685
thorax -6.99009 -0.241995 -4.8742
lowerneck -0.48535 -0.406158 -2.74348
upperneck -1.14904 -0.59037 -2.6931
head -0.267947 -0.290091 -0.366773
rclavicle 3.32964e-015 -1.66979e-014
rhumerus -220.642 -200.72 79.7275
rradius 95.5503
rwrist 12.4922
rhand -23.8483 377.072
rfingers 7.12502
rthumb 2.6239 -12.8916
lclavicle 3.32964e-015 -1.66979e-014
lhumerus -218.96 198.606 -80.7624
lradius 103.535
lwrist 16.001
lhand -15.0895 368.949
lfingers 7.12502
lthumb 11.0784 38.6368
rfemur 6.16413 11.9244 18.4919
rtibia 27.8889
rfoot -32.8222 -21.1246
rtoes -10.331
lfemur -4.63509 -13.7872 -18.3971
ltibia 40.4082
lfoot -29.7479 4.08674
ltoes -0.941907
258
root 0.220742 16.9751 0.252586 -97.2092 -89.7547 88.1547
lowerback 13.0933 -0.094536 2.04299
upperback 0.521038 -0.146402 -3.54174
thorax -6.82256 -0.228118 -4.89752
lowerneck -0.773559 -0.423634 -2.96097
upperneck -1.55918 -0.615906 -2.55764
head -0.343941 -0.29784 -0.291205
rclavicle 2.28602e-015 -3.4191e-014
rhumerus -223.345 -198.04 78.0353
rradius 94.792
rwrist 11.8964
rhand -22.5828 375.93
rfingers 7.12502
rthumb 3.846 -14.0154
lclavicle 2.28602e-015 -3.4191e-014
lhumerus -221.09 196.924 -80.0943
lradius 102.969
lwrist 14.419
lhand -15.7331 369.146
lfingers 7.12502
lthumb 10.4577 38.8656
rfemur 5.71832 12.2704 18.5162
rtibia 27.7918
rfoot -32.8857 -21.3864
rtoes -10.4001
lfemur -5.02638 -14.18 -18.4166
ltibia 40.3056
lfoot -29.8363 4.57703
ltoes -1.0219
